<svg xmlns="http://www.w3.org/2000/svg" viewBox="0 0 720 200" width="720" height="200"><defs><filter id="z13S" x="-30%" y="-30%" width="160%" height="170%"><feDropShadow dx="0" dy="8" stdDeviation="7" flood-color="#0f172a" flood-opacity=".28"/></filter><filter id="z13T"><feDropShadow dx="0" dy="3" stdDeviation="2.5" flood-color="#0f172a" flood-opacity="0.22"/></filter><linearGradient id="z13W" x1="0" y1="0" x2="0" y2="1"><stop offset="0" stop-color="#1e293b"/><stop offset="1" stop-color="#0f172a"/></linearGradient></defs><g filter="url(#z13S)"><path d="M56 97.24 L78 110 L56 122.76 L34 110Z" fill="#c7d2fe"/><path d="M34 110 L56 122.76 L56 160.76 L34 148Z" fill="#6366f1"/><path d="M78 110 L56 122.76 L56 160.76 L78 148Z" fill="#3730a3"/><path d="M100 71.24 L122 84 L100 96.76 L78 84Z" fill="#a5f3fc"/><path d="M78 84 L100 96.76 L100 160.76 L78 148Z" fill="#06b6d4"/><path d="M122 84 L100 96.76 L100 160.76 L122 148Z" fill="#0e7490"/><path d="M144 45.24 L166 58 L144 70.76 L122 58Z" fill="#fde68a"/><path d="M122 58 L144 70.76 L144 160.76 L122 148Z" fill="#f59e0b"/><path d="M166 58 L144 70.76 L144 160.76 L166 148Z" fill="#b45309"/></g><path d="M144 27 Q144 40 157 40 Q144 40 144 53 Q144 40 131 40 Q144 40 144 27Z" fill="#f59e0b"/>
<text x="196" y="98" font-family="Inter,'Inter Display',Arial,sans-serif" font-size="72" font-weight="800" fill="url(#z13W)" filter="url(#z13T)">ORIEN</text>
<text x="199" y="140" font-family="'Noto Sans Thai',Loma,Sarabun,sans-serif" font-size="30" font-weight="700" fill="#0e7490">บริษัท โอเรียน จำกัด</text>
<text x="200" y="172" font-family="Inter,'Inter Display',Arial,sans-serif" font-size="15" font-weight="600" fill="#64748b" letter-spacing="6">BUILDING SYSTEMS</text></svg>